<?xml version="1.0" encoding="utf-8"?>
<!-- Generator: Adobe Illustrator 18.0.0, SVG Export Plug-In . SVG Version: 6.00 Build 0)  -->
<!DOCTYPE svg PUBLIC "-//W3C//DTD SVG 1.1//EN" "http://www.w3.org/Graphics/SVG/1.1/DTD/svg11.dtd">
<svg version="1.1" id="Layer_1" xmlns="http://www.w3.org/2000/svg" xmlns:xlink="http://www.w3.org/1999/xlink" x="0px" y="0px"
	 width="64px" height="64px" viewBox="0 0 64 64" enable-background="new 0 0 64 64" xml:space="preserve">
<g>
	<path fill="#A8D3B6" d="M60,0H16c-2.2,0-4,1.8-4,4v6H4c-2.2,0-4,1.8-4,4v30c0,2.2,1.8,4,4,4h7c0.6,0,1,0.4,1,1v11
		c0,1.6,1,3.1,2.5,3.7c0.5,0.2,1,0.3,1.5,0.3c1,0,2.1-0.4,2.8-1.2L33,48.7c0,0,0.5-0.7,1.7-0.7S50,48,50,48c2.2,0,4-1.8,4-4v-8h6
		c2.2,0,4-1.8,4-4V4C64,1.8,62.2,0,60,0z M52,44c0,1.1-0.9,2-2,2c0,0-14.7,0-15.3,0c-1.9,0-2.7,1-2.7,1S20,59,18,61
		c-2.1,2.1-4,0.4-4-1c0-1,0-12,0-12c0-1.1-0.9-2-2-2H4c-1.1,0-2-0.9-2-2V14c0-1.1,0.9-2,2-2h46c1.1,0,2,0.9,2,2V44z M62,32
		c0,1.1-0.9,2-2,2h-6V14c0-2.2-1.8-4-4-4H14V4c0-1.1,0.9-2,2-2h44c1.1,0,2,0.9,2,2V32z"/>
	<path fill="#A8D3B6" d="M13,24h13c0.6,0,1-0.4,1-1s-0.4-1-1-1H13c-0.6,0-1,0.4-1,1S12.4,24,13,24z"/>
	<path fill="#A8D3B6" d="M41,28H13c-0.6,0-1,0.4-1,1s0.4,1,1,1h28c0.6,0,1-0.4,1-1S41.6,28,41,28z"/>
	<path fill="#A8D3B6" d="M34,34H13c-0.6,0-1,0.4-1,1s0.4,1,1,1h21c0.6,0,1-0.4,1-1S34.6,34,34,34z"/>
</g>
</svg>
