<?xml version="1.0" encoding="utf-8"?>
<!-- Generator: Adobe Illustrator 19.1.0, SVG Export Plug-In . SVG Version: 6.00 Build 0)  -->
<svg version="1.1" id="Layer_1" xmlns="http://www.w3.org/2000/svg" xmlns:xlink="http://www.w3.org/1999/xlink" x="0px" y="0px"
	 width="64px" height="64px" viewBox="0 0 64 64" enable-background="new 0 0 64 64" xml:space="preserve">
<g>
	<path fill="#A8D3B6" d="M54,20H44v-8c0-6.6-5.4-12-12-12c-6.6,0-12,5.4-12,12v8H10c-1.1,0-2,0.9-2,2v38c0,2.2,1.8,4,4,4h40
		c2.2,0,4-1.8,4-4V22C56,20.9,55.1,20,54,20z M22,12c0-5.5,4.5-10,10-10c5.5,0,10,4.5,10,10v12h-2V12c0-4.4-3.6-8-8-8
		c-4.4,0-8,3.6-8,8v12h-2V12z M38,12v8H26v-8c0-3.3,2.7-6,6-6C35.3,6,38,8.7,38,12z M54,60c0,1.1-0.9,2-2,2H12c-1.1,0-2-0.9-2-2v-2
		h44V60z M54,56H10V23c0-0.6,0.4-1,1-1h9v3c0,0.6,0.4,1,1,1h4c0.6,0,1-0.4,1-1v-3h12v3c0,0.6,0.4,1,1,1h4c0.6,0,1-0.4,1-1v-3h9
		c0.6,0,1,0.4,1,1V56z"/>
	<path fill="#A8D3B6" d="M36,34c-1.1,0-2.1,0.4-2.8,1.2L32,36.3l-1.2-1.2C30.1,34.4,29.1,34,28,34c-2.2,0-4,1.8-4,4
		c0,1.1,0.7,2.1,1.4,2.9l5.9,5.9c0.4,0.4,1,0.4,1.4,0l5.8-5.8c0.7-0.7,1.5-1.8,1.5-2.9C40,35.8,38.2,34,36,34z M37.2,39.4L32,44.6
		l-5.2-5.2C26.5,39.1,26,38.6,26,38c0-1.1,0.9-2,2-2c0.6,0,1.1,0.2,1.4,0.6l1.9,1.9c0.4,0.4,1,0.4,1.4,0l1.9-1.9
		c0.4-0.4,0.9-0.6,1.4-0.6c1.1,0,2,0.9,2,2C38,38.6,37.5,39.1,37.2,39.4z"/>
</g>
</svg>
