<?xml version="1.0" encoding="utf-8"?>
<!-- Generator: Adobe Illustrator 19.1.0, SVG Export Plug-In . SVG Version: 6.00 Build 0)  -->
<svg version="1.1" id="Layer_1" xmlns="http://www.w3.org/2000/svg" xmlns:xlink="http://www.w3.org/1999/xlink" x="0px" y="0px"
	 width="64px" height="64px" viewBox="0 0 64 64" enable-background="new 0 0 64 64" xml:space="preserve">
<path fill="#A8D3B6" d="M60,8H4c-2.2,0-4,1.8-4,4v40c0,2.2,1.8,4,4,4h56c2.2,0,4-1.8,4-4V12C64,9.8,62.2,8,60,8z M4,10h56
	c1.1,0,2,0.9,2,2v2.5L32,36.8L2,14.5V12C2,10.9,2.9,10,4,10z M60,54H4c-1.1,0-2-0.9-2-2v-2.8l18.6-13.4c0.4-0.3,0.5-0.9,0.2-1.4
	c-0.3-0.4-0.9-0.5-1.4-0.2L2,46.7V17l29.4,21.8c0.2,0.1,0.4,0.2,0.6,0.2c0.2,0,0.4-0.1,0.6-0.2L62,17v29.8L44.6,34.2
	c-0.4-0.3-1.1-0.2-1.4,0.2c-0.3,0.4-0.2,1.1,0.2,1.4L62,49.2V52C62,53.1,61.1,54,60,54z"/>
</svg>
