<?xml version="1.0" encoding="utf-8"?>
<!-- Generator: Adobe Illustrator 19.1.0, SVG Export Plug-In . SVG Version: 6.00 Build 0)  -->
<svg version="1.1" id="Layer_1" xmlns="http://www.w3.org/2000/svg" xmlns:xlink="http://www.w3.org/1999/xlink" x="0px" y="0px"
	 width="64px" height="64px" viewBox="0 0 64 64" enable-background="new 0 0 64 64" xml:space="preserve">
<g>
	<path fill="#A8D3B6" d="M63.2,29.8L34.4,1c0,0-0.9-1-2.4-1c-1.5,0-2.4,1-2.4,1L20,10.6V5c0-0.6-0.4-1-1-1h-6c-0.6,0-1,0.4-1,1v13.6
		L0.8,29.8C0.2,30.3,0,31.2,0,32c0,1.7,1.3,3,3,3c0.8,0,1.7-0.3,2.2-0.8L6,33.4V60c0,2.2,1.8,4,4,4h44c2.2,0,4-1.8,4-4V33.4l0.8,0.8
		c0.5,0.5,1.4,0.8,2.2,0.8c1.7,0,3-1.3,3-3C64,31.2,63.8,30.3,63.2,29.8z M14,6h4v6.6l-4,4V6z M36,62h-8V48h8V62z M56,60
		c0,1.1-0.9,2-2,2H38V47c0-0.6-0.4-1-1-1H27c-0.6,0-1,0.4-1,1v15H10c-1.1,0-2-0.9-2-2V31.4l24-24l24,24V60z M61,33
		c-0.3,0-0.6,0-0.8-0.2L32.7,5.3C32.5,5.1,32.3,5,32,5c-0.3,0-0.5,0.1-0.7,0.3L3.8,32.8C3.6,33,3.3,33,3,33c-0.6,0-1-0.4-1-1
		c0-0.3,0-0.6,0.2-0.8L31,2.4c0,0,0.4-0.4,1-0.4c0.6,0,1,0.4,1,0.4l28.8,28.8C62,31.4,62,31.7,62,32C62,32.6,61.6,33,61,33z"/>
	<path fill="#A8D3B6" d="M23,32h-8c-0.6,0-1,0.4-1,1v8c0,0.6,0.4,1,1,1h8c0.6,0,1-0.4,1-1v-8C24,32.4,23.6,32,23,32z M22,40h-6v-6h6
		V40z"/>
	<path fill="#A8D3B6" d="M41,42h8c0.6,0,1-0.4,1-1v-8c0-0.6-0.4-1-1-1h-8c-0.6,0-1,0.4-1,1v8C40,41.6,40.4,42,41,42z M42,34h6v6h-6
		V34z"/>
</g>
</svg>
