<?xml version="1.0" encoding="utf-8"?>
<!-- Generator: Adobe Illustrator 19.1.0, SVG Export Plug-In . SVG Version: 6.00 Build 0)  -->
<svg version="1.1" id="Layer_1" xmlns="http://www.w3.org/2000/svg" xmlns:xlink="http://www.w3.org/1999/xlink" x="0px" y="0px"
	 viewBox="-35 226.2 432.2 53.8" enable-background="new -35 226.2 432.2 53.8" xml:space="preserve">
<g enable-background="new    ">
	<path fill="#FFFFFF" d="M-27.271,262.775c-3.456-3.312-5.184-7.488-5.184-12.577c0-5.136,1.728-9.312,5.136-12.577
		c3.456-3.264,7.825-4.896,13.057-4.896c3.312,0,6.241,0.721,8.881,2.112v6.961c-2.592-1.729-5.521-2.592-8.833-2.592
		c-3.216,0-5.856,1.056-8.017,3.12c-2.112,2.063-3.168,4.656-3.168,7.872c0,3.217,1.104,5.856,3.265,7.921s4.896,3.072,8.208,3.072
		c3.648,0,6.721-0.96,9.217-2.928v6.96c-2.736,1.633-5.904,2.448-9.553,2.448C-19.495,267.672-23.815,266.04-27.271,262.775z"/>
</g>
<g enable-background="new    ">
	<path fill="#FFFFFF" d="M5.409,267v-18.29H-2.08v-5.664h21.842v5.664h-7.584V267H5.409z"/>
</g>
<g enable-background="new    ">
	<path fill="#FFFFFF" d="M47.506,261.479v4.944c-0.864,0.672-2.064,1.008-3.648,1.008c-2.736,0-4.512-1.008-5.424-3.072
		c-2.112,2.16-4.849,3.265-8.257,3.265c-5.185,0-8.833-3.168-8.833-8.017c0-2.544,0.912-4.513,2.784-5.856
		c1.872-1.345,4.08-2.017,6.672-2.017c2.688,0,4.993,0.48,6.913,1.488v-0.72c0-3.024-2.112-4.513-6.336-4.513
		c-2.544,0-4.992,0.672-7.249,2.017v-5.665c2.448-1.296,5.376-1.92,8.881-1.92c3.408,0,6.192,0.816,8.256,2.496
		c2.112,1.681,3.168,3.984,3.168,6.913v8.112c0,1.2,0.576,1.824,1.68,1.824C46.69,261.767,47.17,261.672,47.506,261.479z
		 M37.713,257.543c-1.392-0.912-3.024-1.392-4.992-1.392c-2.88,0-4.705,1.151-4.705,3.12c0,2.112,1.776,3.12,4.272,3.12
		c2.352,0,4.176-0.816,5.424-2.448V257.543z"/>
</g>
<g enable-background="new    ">
	<path fill="#FFFFFF" d="M50.524,267l10.321-12.77l-9.265-11.185h7.633l7.296,9.024v-9.024h6.673v9.024l7.249-9.024h7.632
		l-9.265,11.185L89.167,267h-8.065l-7.92-10.225V267h-6.673v-10.225L58.541,267H50.524z"/>
</g>
<g enable-background="new    ">
	<path fill="#FFFFFF" d="M93.112,267v-23.954h6.672v14.113l10.849-14.113h6.336V267h-6.673v-14.113L99.449,267H93.112z"/>
</g>
<g enable-background="new    ">
	<path fill="#FFFFFF" d="M146.318,246.07c2.16,2.4,3.216,5.376,3.216,8.977c0,3.553-1.056,6.528-3.216,8.977
		c-2.112,2.4-4.8,3.601-8.064,3.601c-3.408,0-6-1.2-7.873-3.553V276.6h-6.769v-33.555h6.769v2.929
		c1.776-2.353,4.416-3.553,7.873-3.553C141.518,242.422,144.206,243.622,146.318,246.07z M130.381,251.927v6.24
		c1.104,2.064,3.312,3.553,5.952,3.553c1.873,0,3.457-0.624,4.657-1.92c1.2-1.297,1.824-2.881,1.824-4.753
		c0-1.92-0.625-3.504-1.824-4.801c-1.2-1.296-2.784-1.92-4.657-1.92C133.693,248.326,131.485,249.862,130.381,251.927z"/>
</g>
<g enable-background="new    ">
	<path fill="#FFFFFF" d="M156.973,246.07c2.496-2.448,5.664-3.648,9.553-3.648c3.888,0,7.057,1.2,9.553,3.648
		s3.744,5.425,3.744,8.929c0,3.601-1.248,6.576-3.744,9.024c-2.496,2.4-5.665,3.601-9.553,3.601c-3.889,0-7.057-1.2-9.553-3.601
		c-2.497-2.448-3.745-5.424-3.745-9.024C153.228,251.446,154.476,248.471,156.973,246.07z M166.525,261.72
		c1.92,0,3.504-0.624,4.752-1.92c1.248-1.297,1.872-2.881,1.872-4.801c0-1.92-0.624-3.504-1.872-4.753
		c-1.248-1.296-2.833-1.92-4.752-1.92c-1.92,0-3.504,0.624-4.752,1.92c-1.248,1.249-1.872,2.833-1.872,4.753
		c0,1.92,0.624,3.504,1.872,4.801C163.021,261.096,164.605,261.72,166.525,261.72z"/>
</g>
<g enable-background="new    ">
	<path fill="#FFFFFF" d="M184.912,267v-23.954h13.537c4.992,0,7.681,2.641,7.681,6.145c0,2.4-0.96,4.08-2.928,5.089
		c3.023,1.056,4.56,3.12,4.56,6.145c0,4.032-3.168,6.576-8.736,6.576H184.912z M191.585,252.598h4.704
		c2.16,0,3.217-0.816,3.217-2.448s-1.057-2.448-3.217-2.448h-4.704V252.598z M191.585,262.248h5.76c2.353,0,3.505-0.912,3.505-2.688
		s-1.152-2.688-3.505-2.688h-5.76V262.248z"/>
</g>
<g enable-background="new    ">
	<path fill="#FFFFFF" d="M213.013,267v-23.954h6.769v8.736l8.256-8.736h8.305l-10.416,10.801L237.975,267h-8.737l-9.456-10.321V267
		H213.013z"/>
</g>
<g enable-background="new    ">
	<path fill="#FFFFFF" d="M265.507,261.479v4.944c-0.864,0.672-2.064,1.008-3.648,1.008c-2.736,0-4.513-1.008-5.425-3.072
		c-2.112,2.16-4.849,3.265-8.257,3.265c-5.185,0-8.832-3.168-8.832-8.017c0-2.544,0.912-4.513,2.784-5.856
		c1.872-1.345,4.08-2.017,6.672-2.017c2.688,0,4.993,0.48,6.913,1.488v-0.72c0-3.024-2.112-4.513-6.337-4.513
		c-2.544,0-4.992,0.672-7.248,2.017v-5.665c2.448-1.296,5.376-1.92,8.881-1.92c3.408,0,6.192,0.816,8.256,2.496
		c2.112,1.681,3.169,3.984,3.169,6.913v8.112c0,1.2,0.576,1.824,1.68,1.824C264.69,261.767,265.171,261.672,265.507,261.479z
		 M255.714,257.543c-1.393-0.912-3.024-1.392-4.992-1.392c-2.881,0-4.705,1.151-4.705,3.12c0,2.112,1.776,3.12,4.272,3.12
		c2.353,0,4.177-0.816,5.425-2.448V257.543z"/>
</g>
<g enable-background="new    ">
	<path fill="#FFFFFF" d="M293.513,267v-2.641l11.329-10.801c2.496-2.352,4.224-4.225,5.232-5.712
		c1.008-1.488,1.536-3.169,1.536-5.041c0-3.984-3.072-6.672-7.633-6.672c-3.505,0-6.769,1.487-9.697,4.512v-3.984
		c2.832-2.544,6.145-3.84,10.033-3.84c3.12,0,5.664,0.864,7.729,2.64c2.064,1.776,3.12,4.081,3.12,6.913
		c0,2.256-0.576,4.32-1.68,6.145c-1.104,1.776-3.024,3.984-5.761,6.576l-9.024,8.689h17.713V267H293.513z"/>
</g>
<g enable-background="new    ">
	<path fill="#FFFFFF" d="M324.809,237.861c2.544-3.36,5.904-5.04,9.985-5.04c4.08,0,7.393,1.68,9.937,4.992s3.792,7.44,3.792,12.385
		s-1.248,9.073-3.792,12.386c-2.544,3.312-5.856,4.992-9.937,4.992c-4.081,0-7.441-1.681-9.985-4.992
		c-2.544-3.312-3.792-7.441-3.792-12.386C321.017,245.302,322.265,241.174,324.809,237.861z M342.138,240.166
		c-1.92-2.688-4.368-4.032-7.344-4.032c-2.977,0-5.425,1.344-7.345,4.032c-1.921,2.688-2.881,6.048-2.881,10.032
		c0,4.032,0.96,7.393,2.832,10.081c1.921,2.641,4.369,3.984,7.394,3.984c3.023,0,5.472-1.344,7.344-3.984
		c1.921-2.688,2.881-6.049,2.881-10.081C345.019,246.214,344.059,242.853,342.138,240.166z"/>
</g>
<g enable-background="new    ">
	<path fill="#FFFFFF" d="M360.569,267v-29.763l-7.537,4.32v-3.408l7.921-4.752h3.12V267H360.569z"/>
</g>
<g enable-background="new    ">
	<path fill="#FFFFFF" d="M371.576,265.368v-3.553c2.641,1.632,5.713,2.448,9.169,2.448c2.832,0,5.185-0.72,7.057-2.208
		s2.784-3.36,2.784-5.665c0-4.464-3.744-7.681-9.553-7.681c-2.784,0-5.473,0.48-8.065,1.393l2.209-16.705h16.609v3.216h-13.922
		l-1.344,9.697c1.584-0.433,3.36-0.624,5.328-0.624c3.505,0,6.433,1.008,8.785,3.023c2.353,1.969,3.504,4.561,3.504,7.681
		c0,3.312-1.248,6.001-3.792,8.065c-2.544,2.063-5.713,3.12-9.505,3.12C377.24,267.576,374.12,266.856,371.576,265.368z"/>
</g>
<circle fill="#FF0000" cx="280" cy="253.9" r="5.1"/>
</svg>
